<?xml version="1.0" encoding="UTF-8"?>
<svg width="601px" height="181px" viewBox="0 0 601 181" version="1.1" xmlns="http://www.w3.org/2000/svg" xmlns:xlink="http://www.w3.org/1999/xlink" xmlns:sketch="http://www.bohemiancoding.com/sketch/ns">
    <!-- Generator: Sketch 3.4.2 (15855) - http://www.bohemiancoding.com/sketch -->
    <title>lmmnew</title>
    <desc>Created with Sketch.</desc>
    <defs></defs>
    <g id="Page-1" stroke="none" stroke-width="1" fill="none" fill-rule="evenodd" sketch:type="MSPage">
        <g id="lmmnew" sketch:type="MSLayerGroup" transform="translate(0.000000, -1.000000)">
            <g id="Page-1" sketch:type="MSShapeGroup">
                <g id="Group-3">
                    <g id="Swhite">
                        <path d="M90.925,170.151 L100.946,165.058 L100.946,84.086 L125.717,84.086 L125.717,152.469 L128.689,150.959 L128.689,61.244 L153.46,61.244 L153.46,138.37 L156.431,136.86 L156.431,37.629 L181.201,37.629 L181.201,124.271 L184.172,122.761 L184.172,83.971 L208.943,83.971 L208.943,110.172 L253.486,87.51 L253.486,100.65 L208.182,123.699 L130.712,163.07 L124.956,165.995 L95.095,181.171 L94.762,181.171 C83.62,181.171 72.478,181.007 61.336,181.007 C27.748,181.007 0.508,153.768 0.508,120.18 C0.508,86.591 27.747,59.351 61.336,59.351 C68.466,59.351 75.529,60.585 82.226,63.035 C86.443,64.577 90.48,66.589 94.254,69.022 L95.552,69.859 L94.586,71.063 C93.188,72.807 91.725,74.518 90.181,76.134 C89.641,76.699 89.069,77.291 88.484,77.811 L87.694,78.515 L86.804,77.941 C86.174,77.535 85.535,77.142 84.886,76.763 C80.722,74.334 76.052,72.419 71.28,71.629 C67.994,71.084 64.673,70.632 61.336,70.632 C33.974,70.632 11.787,92.818 11.787,120.181 C11.787,147.543 33.974,169.729 61.336,169.729 C66.228,169.729 71.144,169.841 76.037,169.916 C80.998,169.992 85.964,170.095 90.925,170.151" id="Fill-3" fill="#F1AD2F"></path>
                        <path d="M242.562,47.8 C279.459,47.8 309.382,77.725 309.382,114.622 C309.382,151.518 279.459,181.441 242.562,181.441 C218.968,181.441 195.375,181.253 171.783,181.19 C167.089,181.177 162.455,181.171 157.823,181.171 L146.222,181.171 L119.349,181.19 L124.449,178.561 C151.915,164.398 179.406,150.28 206.916,136.202 L208.943,135.165 L208.943,148.561 L168.102,169.461 C192.922,169.495 217.742,169.729 242.562,169.729 C272.994,169.729 297.669,145.053 297.669,114.622 C297.669,84.19 272.994,59.514 242.562,59.514 C240.569,59.514 238.576,59.622 236.594,59.836 L229.653,60.585 L226.375,54.421 C212.72,28.743 186.104,12.701 157.008,12.701 C127.031,12.701 99.627,29.81 86.47,56.716 L85.915,57.85 L84.732,57.409 C81.967,56.377 79.133,55.53 76.254,54.875 L74.568,54.492 L75.303,52.926 C90.161,21.278 121.938,0.989 157.008,0.989 C190.166,0.989 220.477,19.116 236.272,48.097 C238.363,47.901 240.462,47.8 242.562,47.8 L242.562,47.8 Z" id="Fill-4" fill="#E3E3E3"></path>
                    </g>
                    <g id="Group-2" transform="translate(336.000000, 69.000000)">
                        <g id="Group" transform="translate(195.125338, 1.957014)" fill="#F1AD2F">
                            <path d="M0.04861888,47.9468379 L0.04861888,110.301206 L69.5354055,110.301206 L69.5354055,101.092927 L12.1625381,101.092927 L12.1625381,57.0804738 L54.0565088,57.0804738 L54.0565088,47.8721946 L28.3433482,47.8721946 L28.3433482,47.9468379 L0.04861888,47.9468379 L0.04861888,47.9468379 Z M0.04861888,9.78506897 L0.04861888,0.582218389 L66.5069257,0.582218389 L66.5069257,9.79049758 L28.3433482,9.79049758 L28.3433482,9.78506897 L0.04861888,9.78506897 L0.04861888,9.78506897 Z" id="Combined-Shape"></path>
                        </g>
                        <path d="M45.595446,112.528293 C61.9155872,112.528293 73.3565109,106.285392 82.1054525,95.8285326 L74.3660041,89.1174138 C66.9630535,97.0771128 59.0553562,102.695724 45.9319437,102.695724 C23.2183452,102.695724 12.9551636,85.5277457 12.9551636,56.8104004 C12.9551636,28.0930552 23.2183452,9.67649677 45.7636949,9.67649677 C56.5316231,9.67649677 64.7758181,13.7343825 72.3470176,21.5380089 L80.086466,14.6708177 C70.3280311,3.90181322 59.0553562,0 45.9319437,0 C17.1613856,0 0,21.5380089 0,56.1861103 C0,91.7706468 18.1708788,112.528293 45.595446,112.528293 L45.595446,112.528293 Z M104.650802,111.279713 L104.650802,1.56072529 L135.440347,1.56072529 C157.817448,1.56072529 175.988327,8.27184402 175.988327,31.6827233 C175.988327,54.625385 157.817448,62.4290114 135.945094,62.4290114 L116.764721,62.4290114 L116.764721,111.279713 L104.650802,111.279713 L104.650802,111.279713 Z M116.764721,53.5328773 L134.262605,53.5328773 C152.433484,53.5328773 163.53791,49.006774 163.53791,31.5266508 C163.53791,14.5147452 151.592239,10.7690045 134.9356,10.7690045 L116.764721,10.7690045 L116.764721,53.5328773 L116.764721,53.5328773 Z" id="CPE" fill="#E3E3E3"></path>
                    </g>
                </g>
            </g>
        </g>
    </g>
</svg>